<?xml version="1.0" encoding="utf-8"?>
<!-- Generator: Adobe Illustrator 27.9.0, SVG Export Plug-In . SVG Version: 6.00 Build 0)  -->
<svg version="1.1" id="Layer_1" xmlns="http://www.w3.org/2000/svg" xmlns:xlink="http://www.w3.org/1999/xlink" x="0px" y="0px"
	 viewBox="0 0 288 560" style="enable-background:new 0 0 288 560;" xml:space="preserve">
<style type="text/css">
	.st0{fill:#B3B3B3;stroke:#000000;stroke-width:2;stroke-linecap:square;stroke-miterlimit:3.25;}
	.st1{fill:none;stroke:#000000;stroke-width:2;stroke-linecap:square;stroke-miterlimit:3.25;}
	.st2{opacity:0.75;fill-rule:evenodd;clip-rule:evenodd;fill:#FFFFFF;}
	.st3{opacity:0.5;fill-rule:evenodd;clip-rule:evenodd;fill:#231F20;stroke:#000000;stroke-miterlimit:10;}
	.st4{opacity:0.5;fill-rule:evenodd;clip-rule:evenodd;fill:#F1F2F2;stroke:#000000;stroke-miterlimit:10;}
	.st5{opacity:0.5;fill-rule:evenodd;clip-rule:evenodd;fill:#FFF200;stroke:#000000;stroke-miterlimit:10;}
	.st6{opacity:0.5;fill-rule:evenodd;clip-rule:evenodd;fill:#ED1C24;stroke:#000000;stroke-miterlimit:10;}
</style>
<circle class="st0" cx="143.6" cy="276.4" r="140.4"/>
<g>
	<g>
		<polygon class="st1" points="167.4,243 119.8,243 109.9,252.9 109.9,300.5 119.8,310.4 167.4,310.4 177.3,300.5 177.3,252.9 		"/>
		<polygon class="st1" points="234.8,243 187.2,243 177.3,252.9 177.3,300.5 187.2,310.4 234.8,310.4 244.7,300.5 244.7,252.9 		"/>
		<polygon class="st1" points="167.4,174.9 119.8,174.9 109.9,184.8 109.9,232.4 119.8,242.3 167.4,242.3 177.3,232.4 177.3,184.8 
					"/>
		<polygon class="st1" points="167.4,310.4 119.8,310.4 109.9,320.3 109.9,367.9 119.8,377.8 167.4,377.8 177.3,367.9 177.3,320.3 
					"/>
		<polygon class="st1" points="100,243 52.4,243 42.5,252.9 42.5,300.5 52.4,310.4 100,310.4 109.9,300.5 109.9,252.9 		"/>
	</g>
	<g>
		<path class="st2" d="M187.2,243c0,1.3,2.5,2.5,7,3.4c4.5,0.9,10.5,1.4,16.9,1.4c6.3,0,12.4-0.5,16.9-1.4c4.5-0.9,7-2.1,7-3.4
			c0-1.3-2.5-2.5-7-3.4c-4.5-0.9-10.5-1.4-16.9-1.4c-6.3,0-12.4,0.5-16.9,1.4C189.7,240.5,187.2,241.7,187.2,243z"/>
		<path class="st2" d="M177.3,300.5c1.3,0,2.5-2.5,3.4-7c0.9-4.5,1.4-10.5,1.4-16.9c0-6.3-0.5-12.4-1.4-16.8c-0.9-4.5-2.1-7-3.4-7
			c-1.3,0-2.5,2.5-3.4,7c-0.9,4.5-1.4,10.5-1.4,16.8c0,6.3,0.5,12.4,1.4,16.9C174.8,298,176,300.5,177.3,300.5z"/>
		<path class="st2" d="M234.8,310.4c0-1.3-2.5-2.5-7-3.4c-4.5-0.9-10.5-1.4-16.9-1.4c-6.3,0-12.4,0.5-16.9,1.4c-4.5,0.9-7,2.1-7,3.4
			c0,1.3,2.5,2.5,7,3.4c4.5,0.9,10.5,1.4,16.9,1.4c6.3,0,12.4-0.5,16.9-1.4C232.3,312.9,234.8,311.7,234.8,310.4z"/>
		<path class="st2" d="M244.7,252.9c-1.3,0-2.5,2.5-3.4,7c-0.9,4.5-1.4,10.5-1.4,16.8c0,6.3,0.5,12.4,1.4,16.9c0.9,4.5,2.1,7,3.4,7
			c1.3,0,2.5-2.5,3.4-7c0.9-4.5,1.4-10.5,1.4-16.9c0-6.3-0.5-12.4-1.4-16.8C247.2,255.4,246,252.9,244.7,252.9z"/>
		<path class="st2" d="M119.8,174.9c0,1.3,2.5,2.5,7,3.4c4.5,0.9,10.5,1.4,16.9,1.4c6.3,0,12.4-0.5,16.9-1.4c4.5-0.9,7-2.1,7-3.4
			c0-1.3-2.5-2.5-7-3.4c-4.5-0.9-10.5-1.4-16.9-1.4c-6.3,0-12.4,0.5-16.9,1.4C122.3,172.4,119.8,173.7,119.8,174.9z"/>
		<path class="st2" d="M109.9,232.4c1.3,0,2.5-2.5,3.4-7c0.9-4.5,1.4-10.5,1.4-16.9c0-6.3-0.5-12.4-1.4-16.8c-0.9-4.5-2.1-7-3.4-7
			c-1.3,0-2.5,2.5-3.4,7c-0.9,4.5-1.4,10.5-1.4,16.8c0,6.3,0.5,12.4,1.4,16.9C107.4,229.9,108.6,232.4,109.9,232.4z"/>
		<path class="st2" d="M167.4,242.3c0-1.3-2.5-2.5-7-3.4c-4.5-0.9-10.5-1.4-16.9-1.4c-6.3,0-12.4,0.5-16.9,1.4c-4.5,0.9-7,2.1-7,3.4
			c0,1.3,2.5,2.5,7,3.4c4.5,0.9,10.5,1.4,16.9,1.4c6.3,0,12.4-0.5,16.9-1.4C164.9,244.8,167.4,243.6,167.4,242.3z"/>
		<path class="st2" d="M177.3,184.8c-1.3,0-2.5,2.5-3.4,7c-0.9,4.5-1.4,10.5-1.4,16.8c0,6.3,0.5,12.4,1.4,16.9c0.9,4.5,2.1,7,3.4,7
			c1.3,0,2.5-2.5,3.4-7c0.9-4.5,1.4-10.5,1.4-16.9c0-6.3-0.5-12.4-1.4-16.8C179.8,187.3,178.6,184.8,177.3,184.8z"/>
		<path class="st2" d="M119.8,310.4c0,1.3,2.5,2.5,7,3.4c4.5,0.9,10.5,1.4,16.9,1.4c6.3,0,12.4-0.5,16.9-1.4c4.5-0.9,7-2.1,7-3.4
			c0-1.3-2.5-2.5-7-3.4c-4.5-0.9-10.5-1.4-16.9-1.4c-6.3,0-12.4,0.5-16.9,1.4C122.3,307.9,119.8,309.1,119.8,310.4z"/>
		<path class="st2" d="M109.9,367.9c1.3,0,2.5-2.5,3.4-7c0.9-4.5,1.4-10.5,1.4-16.9c0-6.3-0.5-12.4-1.4-16.8c-0.9-4.5-2.1-7-3.4-7
			c-1.3,0-2.5,2.5-3.4,7c-0.9,4.5-1.4,10.5-1.4,16.8c0,6.3,0.5,12.4,1.4,16.9C107.4,365.4,108.6,367.9,109.9,367.9z"/>
		<path class="st2" d="M167.4,377.8c0-1.3-2.5-2.5-7-3.4c-4.5-0.9-10.5-1.4-16.9-1.4c-6.3,0-12.4,0.5-16.9,1.4c-4.5,0.9-7,2.1-7,3.4
			c0,1.3,2.5,2.5,7,3.4c4.5,0.9,10.5,1.4,16.9,1.4c6.3,0,12.4-0.5,16.9-1.4C164.9,380.3,167.4,379.1,167.4,377.8z"/>
		<path class="st2" d="M177.3,320.3c-1.3,0-2.5,2.5-3.4,7c-0.9,4.5-1.4,10.5-1.4,16.8c0,6.3,0.5,12.4,1.4,16.9c0.9,4.5,2.1,7,3.4,7
			c1.3,0,2.5-2.5,3.4-7c0.9-4.5,1.4-10.5,1.4-16.9c0-6.3-0.5-12.4-1.4-16.8C179.8,322.8,178.6,320.3,177.3,320.3z"/>
		<path class="st2" d="M52.4,243c0,1.3,2.5,2.5,7,3.4c4.5,0.9,10.5,1.4,16.9,1.4c6.3,0,12.4-0.5,16.9-1.4c4.5-0.9,7-2.1,7-3.4
			c0-1.3-2.5-2.5-7-3.4c-4.5-0.9-10.5-1.4-16.9-1.4c-6.3,0-12.4,0.5-16.9,1.4C54.9,240.5,52.4,241.7,52.4,243z"/>
		<path class="st2" d="M42.5,300.5c1.3,0,2.5-2.5,3.4-7c0.9-4.5,1.4-10.5,1.4-16.9c0-6.3-0.5-12.4-1.4-16.8c-0.9-4.5-2.1-7-3.4-7
			c-1.3,0-2.5,2.5-3.4,7c-0.9,4.5-1.4,10.5-1.4,16.8c0,6.3,0.5,12.4,1.4,16.9C40,298,41.2,300.5,42.5,300.5z"/>
		<path class="st2" d="M100,310.4c0-1.3-2.5-2.5-7-3.4c-4.5-0.9-10.5-1.4-16.9-1.4c-6.3,0-12.4,0.5-16.9,1.4c-4.5,0.9-7,2.1-7,3.4
			c0,1.3,2.5,2.5,7,3.4c4.5,0.9,10.5,1.4,16.9,1.4c6.3,0,12.4-0.5,16.9-1.4C97.5,312.9,100,311.7,100,310.4z"/>
		<path class="st2" d="M109.9,252.9c-1.3,0-2.5,2.5-3.4,7c-0.9,4.5-1.4,10.5-1.4,16.8c0,6.3,0.5,12.4,1.4,16.9c0.9,4.5,2.1,7,3.4,7
			c1.3,0,2.5-2.5,3.4-7c0.9-4.5,1.4-10.5,1.4-16.9c0-6.3-0.5-12.4-1.4-16.8C112.4,255.4,111.2,252.9,109.9,252.9z"/>
	</g>
	<g>
		<g>
			<path class="st3" d="M100,243c0-6.3-2.5-12.4-7-16.9c-4.5-4.5-10.5-7-16.9-7c-6.3,0-12.4,2.5-16.9,7c-4.5,4.5-7,10.5-7,16.9
				c0,6.3,2.5,12.4,7,16.9c4.5,4.5,10.5,7,16.9,7c6.3,0,12.4-2.5,16.9-7C97.5,255.4,100,249.3,100,243z"/>
			<path class="st3" d="M66.3,276.7c0-6.3-2.5-12.4-7-16.8c-4.5-4.5-10.5-7-16.8-7c-6.3,0-12.4,2.5-16.9,7c-4.5,4.5-7,10.5-7,16.8
				c0,6.3,2.5,12.4,7,16.9c4.5,4.5,10.5,7,16.9,7c6.3,0,12.4-2.5,16.8-7C63.8,289.1,66.3,283,66.3,276.7z"/>
			<path class="st3" d="M100,310.4c0-6.3-2.5-12.4-7-16.9c-4.5-4.5-10.5-7-16.9-7c-6.3,0-12.4,2.5-16.9,7c-4.5,4.5-7,10.5-7,16.9
				c0,6.3,2.5,12.4,7,16.8c4.5,4.5,10.5,7,16.9,7c6.3,0,12.4-2.5,16.9-7C97.5,322.8,100,316.7,100,310.4z"/>
			<path class="st3" d="M133.7,276.7c0-6.3-2.5-12.4-7-16.8c-4.5-4.5-10.5-7-16.9-7c-6.3,0-12.4,2.5-16.8,7c-4.5,4.5-7,10.5-7,16.8
				c0,6.3,2.5,12.4,7,16.9c4.5,4.5,10.5,7,16.8,7c6.3,0,12.4-2.5,16.9-7C131.2,289.1,133.7,283,133.7,276.7z"/>
		</g>
		<g>
			<path class="st4" d="M167.4,174.9c0-6.3-2.5-12.4-7-16.9c-4.5-4.5-10.5-7-16.9-7c-6.3,0-12.4,2.5-16.9,7c-4.5,4.5-7,10.5-7,16.9
				c0,6.3,2.5,12.4,7,16.9c4.5,4.5,10.5,7,16.9,7c6.3,0,12.4-2.5,16.9-7C164.9,187.3,167.4,181.2,167.4,174.9z"/>
			<path class="st4" d="M133.7,208.6c0-6.3-2.5-12.4-7-16.8c-4.5-4.5-10.5-7-16.8-7c-6.3,0-12.4,2.5-16.9,7c-4.5,4.5-7,10.5-7,16.8
				c0,6.3,2.5,12.4,7,16.9c4.5,4.5,10.5,7,16.9,7c6.3,0,12.4-2.5,16.8-7C131.2,221,133.7,214.9,133.7,208.6z"/>
			<path class="st4" d="M167.4,242.3c0-6.3-2.5-12.4-7-16.9c-4.5-4.5-10.5-7-16.9-7c-6.3,0-12.4,2.5-16.9,7c-4.5,4.5-7,10.5-7,16.9
				c0,6.3,2.5,12.4,7,16.8c4.5,4.5,10.5,7,16.9,7c6.3,0,12.4-2.5,16.9-7C164.9,254.7,167.4,248.6,167.4,242.3z"/>
			<path class="st4" d="M201.1,208.6c0-6.3-2.5-12.4-7-16.8c-4.5-4.5-10.5-7-16.9-7c-6.3,0-12.4,2.5-16.8,7c-4.5,4.5-7,10.5-7,16.8
				c0,6.3,2.5,12.4,7,16.9c4.5,4.5,10.5,7,16.8,7c6.3,0,12.4-2.5,16.9-7C198.6,221,201.1,214.9,201.1,208.6z"/>
		</g>
		<g>
			<path class="st5" d="M234.8,243c0-6.3-2.5-12.4-7-16.9c-4.5-4.5-10.5-7-16.9-7c-6.3,0-12.4,2.5-16.9,7c-4.5,4.5-7,10.5-7,16.9
				c0,6.3,2.5,12.4,7,16.9c4.5,4.5,10.5,7,16.9,7c6.3,0,12.4-2.5,16.9-7C232.3,255.4,234.8,249.3,234.8,243z"/>
			<path class="st5" d="M201.1,276.7c0-6.3-2.5-12.4-7-16.8c-4.5-4.5-10.5-7-16.8-7c-6.3,0-12.4,2.5-16.9,7c-4.5,4.5-7,10.5-7,16.8
				c0,6.3,2.5,12.4,7,16.9c4.5,4.5,10.5,7,16.9,7c6.3,0,12.4-2.5,16.8-7C198.6,289.1,201.1,283,201.1,276.7z"/>
			<path class="st5" d="M234.8,310.4c0-6.3-2.5-12.4-7-16.9c-4.5-4.5-10.5-7-16.9-7c-6.3,0-12.4,2.5-16.9,7c-4.5,4.5-7,10.5-7,16.9
				c0,6.3,2.5,12.4,7,16.8c4.5,4.5,10.5,7,16.9,7c6.3,0,12.4-2.5,16.9-7C232.3,322.8,234.8,316.7,234.8,310.4z"/>
			<path class="st5" d="M268.5,276.7c0-6.3-2.5-12.4-7-16.8c-4.5-4.5-10.5-7-16.9-7c-6.3,0-12.4,2.5-16.8,7c-4.5,4.5-7,10.5-7,16.8
				c0,6.3,2.5,12.4,7,16.9c4.5,4.5,10.5,7,16.8,7c6.3,0,12.4-2.5,16.9-7C266,289.1,268.5,283,268.5,276.7z"/>
		</g>
		<g>
			<path class="st6" d="M167.4,310.4c0-6.3-2.5-12.4-7-16.9c-4.5-4.5-10.5-7-16.9-7c-6.3,0-12.4,2.5-16.9,7c-4.5,4.5-7,10.5-7,16.9
				c0,6.3,2.5,12.4,7,16.9c4.5,4.5,10.5,7,16.9,7c6.3,0,12.4-2.5,16.9-7C164.9,322.8,167.4,316.7,167.4,310.4z"/>
			<path class="st6" d="M133.7,344.1c0-6.3-2.5-12.4-7-16.8c-4.5-4.5-10.5-7-16.8-7c-6.3,0-12.4,2.5-16.9,7c-4.5,4.5-7,10.5-7,16.8
				c0,6.3,2.5,12.4,7,16.9c4.5,4.5,10.5,7,16.9,7c6.3,0,12.4-2.5,16.8-7C131.2,356.5,133.7,350.4,133.7,344.1z"/>
			<path class="st6" d="M167.4,377.8c0-6.3-2.5-12.4-7-16.9c-4.5-4.5-10.5-7-16.9-7c-6.3,0-12.4,2.5-16.9,7c-4.5,4.5-7,10.5-7,16.9
				c0,6.3,2.5,12.4,7,16.8c4.5,4.5,10.5,7,16.9,7c6.3,0,12.4-2.5,16.9-7C164.9,390.2,167.4,384.1,167.4,377.8z"/>
			<path class="st6" d="M201.1,344.1c0-6.3-2.5-12.4-7-16.8c-4.5-4.5-10.5-7-16.9-7c-6.3,0-12.4,2.5-16.8,7c-4.5,4.5-7,10.5-7,16.8
				c0,6.3,2.5,12.4,7,16.9c4.5,4.5,10.5,7,16.8,7c6.3,0,12.4-2.5,16.9-7C198.6,356.5,201.1,350.4,201.1,344.1z"/>
		</g>
	</g>
</g>
</svg>
